<svg xmlns="http://www.w3.org/2000/svg" width="80" height="15"><path fill="#FFF" d="M0 0h80v15H0z"/><path d="M80 0v15H0V0h80m-.75.75H.75v13.5h78.5V.75z"/><path d="M22.797 2a10.297 10.297 0 0 1 .001 11H80V2H22.797zm-10.377.031c-3.137 0-3.926 2.959-3.926 5.469s.787 5.469 3.926 5.469c3.137 0 3.924-2.959 3.924-5.469s-.787-5.469-3.924-5.469zm0 2.063c.127 0 .242.02.352.047.227.193.336.463.121.838l-2.09 3.838a10.04 10.04 0 0 1-.074-1.317c0-1.105.078-3.406 1.691-3.406zm1.562 1.769c.111.588.127 1.203.127 1.637 0 1.105-.076 3.406-1.689 3.406-.127 0-.244-.012-.354-.039l-.061-.021-.098-.031c-.359-.154-.586-.43-.26-.92l2.335-4.032z"/><path d="M21.229 3.848A9.15 9.15 0 0 0 19.194.782 10.27 10.27 0 0 0 18.302 0h-3.708c1.248.348 2.367 1.009 3.354 1.998.736.736 1.299 1.576 1.684 2.516s.578 1.936.578 2.986c0 2.184-.746 3.994-2.227 5.441a8.23 8.23 0 0 1-2.596 1.717 7.786 7.786 0 0 1-1.046.342h3.892c.336-.257.664-.529.972-.834a8.608 8.608 0 0 0 2.021-3c.465-1.143.693-2.363.693-3.666a9.637 9.637 0 0 0-.69-3.652zM6.957 12.975a8.134 8.134 0 0 1-1.729-2.527 7.59 7.59 0 0 1-.6-2.947c0-1.029.203-2.016.6-2.955a8.244 8.244 0 0 1 1.729-2.561C7.916 1.004 9.021.346 10.268 0H6.58a9.703 9.703 0 0 0-.848.762 9.595 9.595 0 0 0-2.101 3.125A9.396 9.396 0 0 0 2.92 7.5c0 1.268.236 2.471.711 3.613s1.164 2.17 2.068 3.086c.295.291.606.553.924.801h3.88a7.6 7.6 0 0 1-1.019-.328 8.023 8.023 0 0 1-2.527-1.697z"/><path d="M30.514 7.736c-.279.233-.678.35-1.197.35h-.993v1.717h-.991V5.028h2.05c.473 0 .849.123 1.13.369s.422.628.422 1.144c-.001.563-.141.962-.421 1.195zm-.761-1.719c-.127-.106-.304-.159-.531-.159h-.898v1.406h.898c.228 0 .404-.058.531-.172.126-.114.189-.296.189-.544 0-.249-.063-.426-.189-.531zm1.98-.989h1.015v2.933c0 .328.038.567.116.718.12.268.383.401.787.401.402 0 .664-.134.784-.401.077-.15.116-.39.116-.718V5.028h1.014v2.935c0 .508-.079.902-.236 1.186-.293.519-.853.777-1.678.777-.826 0-1.387-.259-1.682-.777-.157-.283-.236-.678-.236-1.186V5.028zm8.352.509c.146.203.219.446.219.729 0 .292-.074.526-.221.703-.083.1-.204.19-.364.272.243.088.427.229.551.421s.187.425.187.699c0 .283-.071.537-.213.761a1.325 1.325 0 0 1-.877.616 3.335 3.335 0 0 1-.675.064H36.54V5.028h2.308c.582.009.994.179 1.237.509zm-2.593.32V6.91h1.16a.956.956 0 0 0 .505-.118c.13-.079.194-.219.194-.419 0-.223-.086-.369-.257-.44a1.78 1.78 0 0 0-.563-.075h-1.039zm0 1.843v1.273h1.159c.207 0 .368-.028.483-.084.209-.104.313-.303.313-.597 0-.248-.101-.419-.304-.512-.113-.052-.272-.078-.478-.081h-1.173zm3.821-2.672h.998v3.916h2.384v.858h-3.382V5.028zm4.962 4.775h-.991V5.028h.991v4.775zm1.39-4.276c.385-.393.874-.59 1.468-.59.795 0 1.376.264 1.743.791.203.296.312.593.327.891h-.998c-.063-.229-.145-.402-.244-.519-.178-.207-.441-.311-.79-.311-.355 0-.636.146-.841.438s-.308.707-.308 1.242.108.937.324 1.203c.217.267.492.4.826.4.342 0 .603-.114.782-.344.1-.123.182-.308.247-.554h.991c-.086.521-.304.943-.655 1.27s-.802.489-1.351.489c-.68 0-1.214-.221-1.603-.661C47.194 8.83 47 8.223 47 7.452c.002-.831.224-1.473.665-1.925zm7.132-.395c.335.11.606.312.813.606.167.237.28.494.341.771s.091.54.091.79c0 .635-.128 1.173-.383 1.613-.346.594-.88.891-1.602.891h-2.059V5.028h2.059c.297.005.544.039.74.104zm-1.829.725v3.116h.922c.471 0 .8-.232.985-.696a2.45 2.45 0 0 0 .152-.91c0-.486-.076-.859-.229-1.119s-.455-.391-.909-.391h-.921zm7.498 3.522c-.36.371-.882.557-1.564.557s-1.204-.186-1.564-.557c-.483-.456-.726-1.112-.726-1.97 0-.875.242-1.531.726-1.97.36-.371.882-.557 1.564-.557s1.204.186 1.564.557c.481.438.722 1.095.722 1.97 0 .858-.241 1.514-.722 1.97zm-.624-.726c.232-.292.349-.706.349-1.244 0-.535-.116-.949-.349-1.242-.231-.293-.545-.438-.94-.438s-.711.146-.946.437c-.235.292-.353.706-.353 1.244s.117.952.353 1.244c.235.291.551.437.946.437s.708-.147.94-.438zm5.274-3.625h1.436v4.774h-.929V6.573l.003-.39.003-.388-.904 4.007h-.97l-.898-4.007.003.388c.003.167.004.297.004.39v3.229h-.93V5.028h1.451l.869 3.754.862-3.754zm3.724 0h1.129l1.689 4.774h-1.082l-.314-.981h-1.759l-.323.982h-1.044l1.704-4.775zm-.066 2.971h1.223l-.602-1.879-.621 1.879zm4.401 1.804h-.991V5.028h.991v4.775zm.918-4.775h1.046l1.895 3.329V5.028h.93v4.774h-.997l-1.943-3.388v3.388h-.93V5.028z" fill="#FFF"/></svg>