<svg xmlns="http://www.w3.org/2000/svg" width="120" height="42"><path d="m3.41.446 113.353.202c1.583 0 2.998-.236 2.998 3.16l-.138 37.329H.548V3.669C.548 1.995.71.446 3.41.446z" fill="#aab2ab"/><path d="M117.753 0H2.248A2.25 2.25 0 0 0 0 2.247v39.246c0 .28.227.507.508.507h118.984c.28 0 .508-.227.508-.507V2.247A2.25 2.25 0 0 0 117.753 0zM2.248 1.015h115.505c.68 0 1.232.553 1.232 1.232V29.46H36.429c-3.026 5.47-8.857 9.185-15.547 9.185-6.693 0-12.521-3.71-15.545-9.185H1.015V2.247c0-.68.553-1.232 1.233-1.232z"/><path d="M34.523 19.545c.005 7.53-6.097 13.636-13.627 13.642-7.53.004-13.638-6.096-13.643-13.626v-.016C7.248 12.015 13.35 5.908 20.88 5.903 28.41 5.9 34.519 12 34.523 19.528v.017z" fill="#fff"/><path d="M31.973 8.44c3.023 3.024 4.535 6.726 4.535 11.105 0 4.38-1.486 8.042-4.458 10.988-3.154 3.102-6.88 4.653-11.182 4.653-4.249 0-7.911-1.538-10.986-4.615-3.076-3.075-4.613-6.75-4.613-11.026 0-4.275 1.537-7.977 4.613-11.105 2.997-3.024 6.66-4.536 10.986-4.536 4.38 0 8.08 1.512 11.104 4.536zm-20.056 2.034c-2.556 2.582-3.834 5.606-3.834 9.075 0 3.468 1.266 6.466 3.795 8.996 2.53 2.529 5.542 3.794 9.037 3.794 3.495 0 6.532-1.278 9.115-3.833 2.451-2.373 3.677-5.358 3.677-8.957 0-3.572-1.246-6.604-3.738-9.095-2.49-2.49-5.508-3.735-9.054-3.735s-6.547 1.252-8.998 3.755zm6.727 7.549c-.39-.852-.974-1.277-1.755-1.277-1.378 0-2.067.928-2.067 2.783 0 1.856.69 2.783 2.067 2.783.91 0 1.56-.452 1.95-1.357l1.912 1.017c-.911 1.618-2.278 2.428-4.1 2.428-1.405 0-2.53-.43-3.376-1.292-.846-.862-1.27-2.05-1.27-3.563 0-1.488.437-2.67 1.309-3.544.872-.875 1.958-1.311 3.26-1.311 1.926 0 3.304.758 4.139 2.274l-2.07 1.059zm8.99 0c-.39-.852-.964-1.277-1.72-1.277-1.405 0-2.11.928-2.11 2.783 0 1.856.705 2.783 2.11 2.783.913 0 1.552-.452 1.916-1.357l1.953 1.017c-.91 1.618-2.274 2.428-4.092 2.428-1.404 0-2.527-.43-3.372-1.292-.843-.862-1.266-2.05-1.266-3.563 0-1.488.429-2.67 1.286-3.544.857-.875 1.948-1.311 3.274-1.311 1.922 0 3.3.758 4.13 2.274l-2.109 1.059z"/><g transform="matrix(.99377 0 0 .99367 -177.693 0)"><circle cx="255.551" cy="15.313" r="10.807" fill="#fff"/><path d="M258.678 12.187a.754.754 0 0 0-.753-.754h-4.773a.754.754 0 0 0-.753.754v4.773h1.33v5.652h3.618V16.96h1.331v-4.773z"/><circle cx="255.539" cy="9.172" r="1.633"/><path clip-rule="evenodd" d="M255.524 3.407c-3.233 0-5.969 1.128-8.208 3.384-2.298 2.334-3.446 5.096-3.446 8.285s1.148 5.931 3.446 8.226c2.298 2.295 5.034 3.442 8.208 3.442 3.213 0 5.998-1.156 8.353-3.471 2.22-2.197 3.33-4.93 3.33-8.197 0-3.268-1.13-6.03-3.387-8.285-2.26-2.256-5.025-3.384-8.296-3.384zm.03 2.1c2.648 0 4.897.934 6.746 2.801 1.87 1.847 2.804 4.103 2.804 6.768 0 2.683-.915 4.91-2.745 6.68-1.929 1.906-4.196 2.859-6.806 2.859-2.61 0-4.86-.943-6.747-2.83-1.89-1.887-2.833-4.123-2.833-6.71 0-2.586.954-4.842 2.862-6.767 1.83-1.867 4.07-2.801 6.718-2.801z" fill-rule="evenodd"/></g><path d="M73.809 32.747c.315 0 .604.029.865.084.26.055.482.146.668.274.186.126.33.295.432.504.102.21.154.47.154.78 0 .333-.076.61-.229.833-.15.223-.376.405-.673.547.41.118.715.323.917.617.202.294.303.649.303 1.063 0 .334-.065.623-.195.867s-.306.444-.525.598c-.22.155-.472.27-.753.344a3.381 3.381 0 0 1-.87.111h-3.216v-6.622h3.122zm-.186 2.679c.26 0 .473-.062.641-.186.167-.123.25-.323.25-.6a.768.768 0 0 0-.083-.38.625.625 0 0 0-.223-.232.945.945 0 0 0-.32-.115 2.156 2.156 0 0 0-.376-.032h-1.365v1.545h1.476zm.085 2.81c.143 0 .279-.014.409-.042a1.04 1.04 0 0 0 .344-.139.704.704 0 0 0 .237-.264.901.901 0 0 0 .088-.426c0-.34-.096-.583-.288-.728-.192-.145-.446-.218-.762-.218h-1.59v1.817h1.562zm2.795-5.489h1.633l1.551 2.616 1.541-2.616h1.624l-2.458 4.08v2.542h-1.46v-2.578l-2.431-4.044z" fill="#fff"/></svg>