<svg xmlns="http://www.w3.org/2000/svg" width="120" height="42"><path d="m3.41.446 113.353.202c1.583 0 2.998-.236 2.998 3.16l-.138 37.329H.548V3.669C.548 1.995.71.446 3.41.446z" fill="#aab2ab"/><path d="M117.753 0H2.248A2.25 2.25 0 0 0 0 2.247v39.246c0 .28.227.507.508.507h118.984c.28 0 .508-.227.508-.507V2.247A2.25 2.25 0 0 0 117.753 0zM2.248 1.015h115.505c.68 0 1.232.553 1.232 1.232V29.46H36.429c-3.026 5.47-8.857 9.185-15.547 9.185-6.693 0-12.521-3.71-15.545-9.185H1.015V2.247c0-.68.553-1.232 1.233-1.232z"/><path d="M34.523 19.545c.005 7.53-6.097 13.636-13.627 13.642-7.53.004-13.638-6.096-13.643-13.626v-.016C7.248 12.015 13.35 5.908 20.88 5.903 28.41 5.9 34.519 12 34.523 19.528v.017z" fill="#fff"/><path d="M31.973 8.44c3.023 3.024 4.535 6.726 4.535 11.105 0 4.38-1.486 8.042-4.458 10.988-3.154 3.102-6.88 4.653-11.182 4.653-4.249 0-7.911-1.538-10.986-4.615-3.076-3.075-4.613-6.75-4.613-11.026 0-4.275 1.537-7.977 4.613-11.105 2.997-3.024 6.66-4.536 10.986-4.536 4.38 0 8.08 1.512 11.104 4.536zm-20.056 2.034c-2.556 2.582-3.834 5.606-3.834 9.075 0 3.468 1.266 6.466 3.795 8.996 2.53 2.529 5.542 3.794 9.037 3.794 3.495 0 6.532-1.278 9.115-3.833 2.451-2.373 3.677-5.358 3.677-8.957 0-3.572-1.246-6.604-3.738-9.095-2.49-2.49-5.508-3.735-9.054-3.735s-6.547 1.252-8.998 3.755zm6.727 7.549c-.39-.852-.974-1.277-1.755-1.277-1.378 0-2.067.928-2.067 2.783 0 1.856.69 2.783 2.067 2.783.91 0 1.56-.452 1.95-1.357l1.912 1.017c-.911 1.618-2.278 2.428-4.1 2.428-1.405 0-2.53-.43-3.376-1.292-.846-.862-1.27-2.05-1.27-3.563 0-1.488.437-2.67 1.309-3.544.872-.875 1.958-1.311 3.26-1.311 1.926 0 3.304.758 4.139 2.274l-2.07 1.059zm8.99 0c-.39-.852-.964-1.277-1.72-1.277-1.405 0-2.11.928-2.11 2.783 0 1.856.705 2.783 2.11 2.783.913 0 1.552-.452 1.916-1.357l1.953 1.017c-.91 1.618-2.274 2.428-4.092 2.428-1.404 0-2.527-.43-3.372-1.292-.843-.862-1.266-2.05-1.266-3.563 0-1.488.429-2.67 1.286-3.544.857-.875 1.948-1.311 3.274-1.311 1.922 0 3.3.758 4.13 2.274l-2.109 1.059z"/><g transform="matrix(.99377 0 0 .99367 -437.12 0)"><circle cx="491.947" cy="15.314" r="10.806" fill="#fff"/><path d="M495.075 12.187a.754.754 0 0 0-.754-.753h-4.773a.754.754 0 0 0-.754.753v4.773h1.332v5.652h3.617V16.96h1.332v-4.773z"/><circle cx="491.935" cy="9.172" r="1.632"/><path clip-rule="evenodd" d="M491.92 3.408c-3.232 0-5.968 1.127-8.208 3.383-2.297 2.334-3.446 5.096-3.446 8.285s1.149 5.932 3.446 8.227c2.298 2.294 5.035 3.442 8.207 3.442 3.213 0 5.999-1.157 8.355-3.472 2.22-2.197 3.33-4.93 3.33-8.197 0-3.268-1.13-6.029-3.389-8.285-2.258-2.256-5.023-3.383-8.296-3.383zm.03 2.1c2.648 0 4.896.933 6.746 2.8 1.87 1.847 2.805 4.104 2.805 6.768 0 2.683-.916 4.91-2.747 6.68-1.927 1.906-4.196 2.859-6.804 2.859-2.61 0-4.86-.943-6.748-2.83-1.889-1.886-2.833-4.122-2.833-6.71 0-2.586.954-4.842 2.862-6.767 1.831-1.867 4.07-2.8 6.719-2.8z" fill-rule="evenodd"/></g><path d="M48.093 32.747c.316 0 .605.029.865.084.26.055.482.146.669.274.185.126.329.295.431.504.102.21.154.47.154.78 0 .333-.076.61-.228.833-.152.223-.376.405-.674.547.41.118.715.323.917.617.202.294.303.649.303 1.063 0 .334-.065.623-.195.867s-.306.444-.525.598c-.22.155-.472.27-.753.344a3.381 3.381 0 0 1-.87.111h-3.216v-6.622h3.122zm-.185 2.679c.259 0 .473-.062.64-.186.167-.123.25-.323.25-.6a.768.768 0 0 0-.083-.38.625.625 0 0 0-.223-.232.945.945 0 0 0-.32-.115 2.16 2.16 0 0 0-.377-.032h-1.364v1.545h1.477zm.084 2.81c.143 0 .279-.014.409-.042a1.04 1.04 0 0 0 .344-.139.704.704 0 0 0 .237-.264.901.901 0 0 0 .088-.426c0-.34-.096-.583-.288-.728-.192-.145-.445-.218-.762-.218h-1.59v1.817h1.562zm2.795-5.489h1.634l1.55 2.616 1.542-2.616h1.623l-2.458 4.08v2.542h-1.46v-2.578l-2.43-4.044zM87.801 14.981c.005 5.5-4.451 9.962-9.953 9.967-5.5.003-9.963-4.453-9.967-9.952v-.015c-.004-5.5 4.453-9.962 9.954-9.967 5.5-.003 9.963 4.453 9.966 9.952v.015z" fill="#fff"/><path d="M77.826 3.386c3.252 0 6 1.12 8.244 3.362 2.245 2.242 3.368 4.987 3.368 8.233 0 3.246-1.104 5.962-3.31 8.146-2.342 2.3-5.11 3.449-8.302 3.449-3.153 0-5.873-1.14-8.156-3.42-2.284-2.28-3.425-5.005-3.425-8.175 0-3.17 1.141-5.914 3.425-8.233 2.225-2.241 4.944-3.362 8.156-3.362zm-8.972 8.48a9.289 9.289 0 0 0-.52 3.115c0 2.57.94 4.792 2.817 6.667 1.877 1.874 4.112 2.811 6.705 2.811 2.592 0 4.846-.946 6.762-2.84a8.928 8.928 0 0 0 1.585-2.028l-4.372-1.947c-.296 1.471-1.607 2.464-3.191 2.58v1.789h-1.331v-1.788c-1.302-.015-2.559-.547-3.52-1.388l1.597-1.61c.769.723 1.538 1.048 2.588 1.048.68 0 1.435-.266 1.435-1.153a.867.867 0 0 0-.313-.696l-1.106-.491-1.376-.614-1.837-.818-5.923-2.637zm9.002-6.393c-2.633 0-4.857.927-6.677 2.783-.495.5-.926 1.021-1.29 1.566l4.431 1.974c.401-1.23 1.57-1.976 2.989-2.059V7.95h1.331v1.788c.917.044 1.923.296 2.913 1.063l-1.523 1.567c-.562-.4-1.272-.68-1.982-.68-.576 0-1.39.177-1.39.901 0 .11.037.207.104.295l1.483.659 1.004.447c.641.287 1.254.558 1.86.829l5.943 2.645c.196-.778.295-1.606.295-2.482 0-2.647-.929-4.89-2.786-6.725-1.84-1.856-4.073-2.783-6.705-2.783z"/><path d="m72.517 32.747 2.767 4.443h.016v-4.443h1.366v6.622H75.21l-2.756-4.433h-.018v4.433h-1.367v-6.622h1.45zm9.678 1.765a1.492 1.492 0 0 0-.766-.612 1.504 1.504 0 0 0-.514-.089c-.328 0-.607.063-.836.19a1.56 1.56 0 0 0-.556.51 2.232 2.232 0 0 0-.311.727 3.613 3.613 0 0 0 0 1.655c.065.263.169.5.311.71.142.21.327.378.556.505.23.127.508.19.836.19.444 0 .793-.136 1.043-.409.25-.271.404-.63.46-1.076h1.41a3.37 3.37 0 0 1-.288 1.123 2.596 2.596 0 0 1-1.503 1.394c-.34.125-.715.187-1.122.187-.508 0-.964-.088-1.37-.265a2.94 2.94 0 0 1-1.025-.728 3.216 3.216 0 0 1-.642-1.09 4.005 4.005 0 0 1-.223-1.351c0-.495.075-.954.223-1.378.149-.424.362-.794.642-1.11a2.938 2.938 0 0 1 1.026-.742c.405-.18.861-.269 1.369-.269.365 0 .71.053 1.034.159.325.104.616.258.872.46.257.2.469.45.636.747.166.297.271.637.315 1.02h-1.41a1.182 1.182 0 0 0-.167-.458zM114.58 14.98c.005 5.846-4.731 10.588-10.578 10.592-5.846.004-10.588-4.73-10.593-10.577v-.014c-.003-5.845 4.733-10.588 10.578-10.592 5.846-.004 10.588 4.731 10.593 10.576v.016z" fill="#fff"/><path d="M103.919 3.386c-3.212 0-5.932 1.12-8.156 3.362-2.284 2.319-3.426 5.063-3.426 8.233 0 3.169 1.142 5.893 3.426 8.174 2.283 2.28 5.002 3.42 8.156 3.42 3.193 0 5.96-1.15 8.301-3.448 2.206-2.185 3.31-4.9 3.31-8.146 0-3.247-1.122-5.991-3.368-8.233-2.244-2.241-4.992-3.362-8.243-3.362zm.029 2.087c2.632 0 4.866.927 6.705 2.783 1.858 1.835 2.786 4.076 2.786 6.725 0 2.666-.909 4.879-2.729 6.639-1.914 1.893-4.17 2.84-6.762 2.84-2.593 0-4.828-.938-6.705-2.812-1.877-1.875-2.815-4.097-2.815-6.667 0-2.57.947-4.812 2.844-6.725 1.819-1.856 4.044-2.783 6.676-2.783z"/><path d="M98.78 13.345c.461-2.918 2.515-4.478 5.09-4.478 3.7 0 5.957 2.686 5.957 6.268 0 3.495-2.4 6.21-6.016 6.21-2.487 0-4.714-1.53-5.12-4.535h2.922c.087 1.56 1.1 2.109 2.546 2.109 1.648 0 2.718-1.53 2.718-3.87 0-2.456-.925-3.755-2.661-3.755-1.272 0-2.371.462-2.603 2.05l.85-.005-2.3 2.3-2.299-2.3.915.006z"/><path d="M98.44 37.732c.081.155.187.28.32.376.133.096.288.167.468.213.178.047.363.07.555.07.129 0 .268-.01.416-.033.148-.021.286-.063.416-.125a.91.91 0 0 0 .325-.255.644.644 0 0 0 .129-.413.58.58 0 0 0-.172-.435 1.36 1.36 0 0 0-.448-.279 4.664 4.664 0 0 0-.63-.195 16.84 16.84 0 0 1-.714-.185 6.45 6.45 0 0 1-.723-.227 2.473 2.473 0 0 1-.63-.349 1.628 1.628 0 0 1-.448-.532 1.618 1.618 0 0 1-.172-.775c0-.34.073-.635.218-.886.145-.25.336-.459.57-.627.234-.167.5-.29.797-.37.296-.08.593-.12.89-.12.346 0 .677.038.996.116.317.077.6.203.847.375.248.174.444.395.59.664.144.27.217.596.217.98h-1.414a1.173 1.173 0 0 0-.124-.492.82.82 0 0 0-.282-.306 1.174 1.174 0 0 0-.401-.158 2.448 2.448 0 0 0-.494-.046 1.72 1.72 0 0 0-.35.037.933.933 0 0 0-.319.13.802.802 0 0 0-.235.232.63.63 0 0 0-.093.352c0 .13.025.236.074.315.05.08.147.156.292.223.146.068.346.136.602.204.256.068.592.155 1.005.26.124.025.295.07.514.135.22.065.437.168.653.31.216.143.403.334.56.571.158.238.237.543.237.914 0 .303-.06.585-.177.845-.117.26-.292.484-.524.672-.232.19-.52.336-.863.44-.342.106-.74.159-1.192.159-.364 0-.718-.046-1.061-.135a2.662 2.662 0 0 1-.909-.423 2.1 2.1 0 0 1-.627-.735c-.154-.297-.229-.649-.222-1.057h1.413c0 .222.04.411.12.565zm8.206-4.985 2.477 6.622h-1.512l-.501-1.475h-2.477l-.52 1.475h-1.465l2.504-6.622h1.494zm.084 4.06-.835-2.427h-.02l-.861 2.427h1.716z" fill="#fff"/></svg>