<svg xmlns="http://www.w3.org/2000/svg" width="120" height="42"><path d="m3.41.446 113.353.202c1.583 0 2.998-.236 2.998 3.16l-.138 37.329H.548V3.669C.548 1.995.71.446 3.41.446z" fill="#aab2ab"/><path d="M117.753 0H2.248A2.25 2.25 0 0 0 0 2.247v39.246c0 .28.227.507.508.507h118.984c.28 0 .508-.227.508-.507V2.247A2.25 2.25 0 0 0 117.753 0zM2.248 1.015h115.505c.68 0 1.232.553 1.232 1.232V29.46H36.429c-3.026 5.47-8.857 9.185-15.547 9.185-6.693 0-12.521-3.71-15.545-9.185H1.015V2.247c0-.68.553-1.232 1.233-1.232z"/><path d="M34.523 19.545c.005 7.53-6.097 13.636-13.627 13.642-7.53.004-13.638-6.096-13.643-13.626v-.016C7.248 12.015 13.35 5.908 20.88 5.903 28.41 5.9 34.519 12 34.523 19.528v.017z" fill="#fff"/><path d="M31.973 8.44c3.023 3.024 4.535 6.726 4.535 11.105 0 4.38-1.486 8.042-4.458 10.988-3.154 3.102-6.88 4.653-11.182 4.653-4.249 0-7.911-1.538-10.986-4.615-3.076-3.075-4.613-6.75-4.613-11.026 0-4.275 1.537-7.977 4.613-11.105 2.997-3.024 6.66-4.536 10.986-4.536 4.38 0 8.08 1.512 11.104 4.536zm-20.056 2.034c-2.556 2.582-3.834 5.606-3.834 9.075 0 3.468 1.266 6.466 3.795 8.996 2.53 2.529 5.542 3.794 9.037 3.794 3.495 0 6.532-1.278 9.115-3.833 2.451-2.373 3.677-5.358 3.677-8.957 0-3.572-1.246-6.604-3.738-9.095-2.49-2.49-5.508-3.735-9.054-3.735s-6.547 1.252-8.998 3.755zm6.727 7.549c-.39-.852-.974-1.277-1.755-1.277-1.378 0-2.067.928-2.067 2.783 0 1.856.69 2.783 2.067 2.783.91 0 1.56-.452 1.95-1.357l1.912 1.017c-.911 1.618-2.278 2.428-4.1 2.428-1.405 0-2.53-.43-3.376-1.292-.846-.862-1.27-2.05-1.27-3.563 0-1.488.437-2.67 1.309-3.544.872-.875 1.958-1.311 3.26-1.311 1.926 0 3.304.758 4.139 2.274l-2.07 1.059zm8.99 0c-.39-.852-.964-1.277-1.72-1.277-1.405 0-2.11.928-2.11 2.783 0 1.856.705 2.783 2.11 2.783.913 0 1.552-.452 1.916-1.357l1.953 1.017c-.91 1.618-2.274 2.428-4.092 2.428-1.404 0-2.527-.43-3.372-1.292-.843-.862-1.266-2.05-1.266-3.563 0-1.488.429-2.67 1.286-3.544.857-.875 1.948-1.311 3.274-1.311 1.922 0 3.3.758 4.13 2.274l-2.109 1.059z"/><g transform="matrix(.99378 0 0 .9937 -177.694 -148.877)"><circle cx="242.562" cy="165.136" r="10.806" fill="#fff"/><path d="M245.69 162.01a.754.754 0 0 0-.754-.755h-4.772a.754.754 0 0 0-.754.754v4.773h1.33v5.652h3.618v-5.652h1.332v-4.773z"/><circle cx="242.55" cy="158.995" r="1.632"/><path clip-rule="evenodd" d="M242.535 153.23c-3.232 0-5.969 1.127-8.208 3.383-2.298 2.334-3.446 5.096-3.446 8.285s1.148 5.932 3.446 8.227c2.298 2.294 5.034 3.441 8.208 3.441 3.213 0 5.998-1.156 8.353-3.47 2.22-2.198 3.33-4.93 3.33-8.198 0-3.268-1.129-6.029-3.387-8.285-2.26-2.256-5.025-3.384-8.296-3.384zm.029 2.1c2.648 0 4.897.933 6.747 2.8 1.87 1.848 2.805 4.103 2.805 6.768 0 2.684-.915 4.91-2.746 6.68-1.928 1.906-4.197 2.859-6.806 2.859-2.61 0-4.858-.943-6.747-2.83-1.89-1.886-2.833-4.123-2.833-6.709 0-2.587.954-4.843 2.862-6.768 1.83-1.867 4.07-2.8 6.718-2.8z" fill-rule="evenodd"/></g><path d="M59.997 32.747c.315 0 .603.028.863.084.26.055.484.146.67.273.185.126.33.295.432.505.102.21.153.47.153.78 0 .333-.076.61-.228.833-.151.223-.376.404-.673.547.41.117.715.323.917.617.202.294.302.648.302 1.063 0 .334-.065.623-.195.867s-.305.444-.525.598c-.22.155-.471.27-.753.344a3.381 3.381 0 0 1-.87.111h-3.215v-6.622h3.122zm-.186 2.679c.26 0 .473-.063.64-.186.168-.123.251-.323.251-.6a.768.768 0 0 0-.083-.38.625.625 0 0 0-.224-.232.938.938 0 0 0-.32-.115 2.157 2.157 0 0 0-.376-.032h-1.365v1.545h1.477zm.085 2.81c.142 0 .278-.014.409-.042.13-.028.245-.075.344-.139a.704.704 0 0 0 .237-.265.901.901 0 0 0 .088-.426c0-.34-.096-.582-.288-.727-.193-.145-.446-.218-.762-.218h-1.59v1.817h1.562zm2.795-5.489h1.633l1.55 2.615 1.542-2.615h1.624l-2.459 4.08v2.542h-1.46v-2.578l-2.43-4.044zM102.494 14.98c.004 5.845-4.732 10.588-10.578 10.592-5.845.003-10.588-4.73-10.593-10.577v-.014C81.32 9.135 86.055 4.394 91.901 4.389c5.847-.005 10.588 4.73 10.593 10.576v.016z" fill="#fff"/><path d="M91.743 3.386c-3.213 0-5.931 1.12-8.157 3.361-2.283 2.32-3.425 5.063-3.425 8.234 0 3.169 1.142 5.893 3.425 8.174 2.284 2.28 5.002 3.42 8.157 3.42 3.192 0 5.96-1.15 8.302-3.449 2.206-2.184 3.31-4.9 3.31-8.145 0-3.248-1.124-5.991-3.368-8.234-2.245-2.242-4.994-3.361-8.244-3.361zm.03 2.085c2.63 0 4.865.929 6.704 2.785 1.858 1.835 2.787 4.076 2.787 6.725 0 2.666-.91 4.879-2.73 6.637-1.915 1.894-4.17 2.84-6.762 2.84-2.594 0-4.829-.936-6.706-2.812-1.877-1.874-2.815-4.096-2.815-6.665 0-2.572.948-4.812 2.844-6.725 1.82-1.856 4.045-2.785 6.677-2.785z"/><path d="M96.14 12.233h-8.431v1.996h8.43v-1.996zm0 3.726h-8.431v1.996h8.43v-1.996z"/><path d="M85.933 32.747 88.7 37.19h.015v-4.443h1.367v6.622h-1.457l-2.756-4.433h-.019v4.433h-1.366v-6.622h1.449zm8.285 0c.428 0 .825.068 1.194.204.368.137.687.34.957.613.268.271.479.612.63 1.02.153.408.228.887.228 1.437 0 .483-.062.928-.185 1.336-.124.408-.311.76-.562 1.057-.251.296-.564.53-.938.7-.375.17-.815.255-1.324.255h-2.86v-6.622h2.86zm-.102 5.396c.21 0 .414-.034.612-.102.198-.068.375-.18.53-.338.154-.158.278-.363.371-.616.092-.253.139-.562.139-.927 0-.334-.032-.634-.097-.903s-.172-.499-.32-.69-.345-.338-.59-.44c-.244-.102-.546-.153-.904-.153h-1.04v4.169h1.3z" fill="#fff"/></svg>