<svg xmlns="http://www.w3.org/2000/svg" width="120" height="42"><path d="m3.41.446 113.353.202c1.583 0 2.998-.236 2.998 3.16l-.138 37.329H.548V3.669C.548 1.995.71.446 3.41.446z" fill="#aab2ab"/><path d="M117.753 0H2.248A2.25 2.25 0 0 0 0 2.247v39.246c0 .28.227.507.508.507h118.984c.28 0 .508-.227.508-.507V2.247A2.25 2.25 0 0 0 117.753 0zM2.248 1.015h115.505c.68 0 1.232.553 1.232 1.232V29.46H36.429c-3.026 5.47-8.857 9.185-15.547 9.185-6.693 0-12.521-3.71-15.545-9.185H1.015V2.247c0-.68.553-1.232 1.233-1.232z"/><path d="M34.523 19.545c.005 7.53-6.097 13.636-13.627 13.642-7.53.004-13.638-6.096-13.643-13.626v-.016C7.248 12.015 13.35 5.908 20.88 5.903 28.41 5.9 34.519 12 34.523 19.528v.017z" fill="#fff"/><path d="M31.973 8.44c3.023 3.024 4.535 6.726 4.535 11.105 0 4.38-1.486 8.042-4.458 10.988-3.154 3.102-6.88 4.653-11.182 4.653-4.249 0-7.911-1.538-10.986-4.615-3.076-3.075-4.613-6.75-4.613-11.026 0-4.275 1.537-7.977 4.613-11.105 2.997-3.024 6.66-4.536 10.986-4.536 4.38 0 8.08 1.512 11.104 4.536zm-20.056 2.034c-2.556 2.582-3.834 5.606-3.834 9.075 0 3.468 1.266 6.466 3.795 8.996 2.53 2.529 5.542 3.794 9.037 3.794 3.495 0 6.532-1.278 9.115-3.833 2.451-2.373 3.677-5.358 3.677-8.957 0-3.572-1.246-6.604-3.738-9.095-2.49-2.49-5.508-3.735-9.054-3.735s-6.547 1.252-8.998 3.755zm6.727 7.549c-.39-.852-.974-1.277-1.755-1.277-1.378 0-2.067.928-2.067 2.783 0 1.856.69 2.783 2.067 2.783.91 0 1.56-.452 1.95-1.357l1.912 1.017c-.911 1.618-2.278 2.428-4.1 2.428-1.405 0-2.53-.43-3.376-1.292-.846-.862-1.27-2.05-1.27-3.563 0-1.488.437-2.67 1.309-3.544.872-.875 1.958-1.311 3.26-1.311 1.926 0 3.304.758 4.139 2.274l-2.07 1.059zm8.99 0c-.39-.852-.964-1.277-1.72-1.277-1.405 0-2.11.928-2.11 2.783 0 1.856.705 2.783 2.11 2.783.913 0 1.552-.452 1.916-1.357l1.953 1.017c-.91 1.618-2.274 2.428-4.092 2.428-1.404 0-2.527-.43-3.372-1.292-.843-.862-1.266-2.05-1.266-3.563 0-1.488.429-2.67 1.286-3.544.857-.875 1.948-1.311 3.274-1.311 1.922 0 3.3.758 4.13 2.274l-2.109 1.059z"/><g transform="matrix(.99377 0 0 .99367 -437.12 0)"><circle cx="491.947" cy="15.314" r="10.806" fill="#fff"/><path d="M495.075 12.187a.754.754 0 0 0-.754-.753h-4.773a.754.754 0 0 0-.754.753v4.773h1.332v5.652h3.617V16.96h1.332v-4.773z"/><circle cx="491.935" cy="9.172" r="1.632"/><path clip-rule="evenodd" d="M491.92 3.408c-3.232 0-5.968 1.127-8.208 3.383-2.297 2.334-3.446 5.096-3.446 8.285s1.149 5.932 3.446 8.227c2.298 2.294 5.035 3.442 8.207 3.442 3.213 0 5.999-1.157 8.355-3.472 2.22-2.197 3.33-4.93 3.33-8.197 0-3.268-1.13-6.029-3.389-8.285-2.258-2.256-5.023-3.383-8.296-3.383zm.03 2.1c2.648 0 4.896.933 6.746 2.8 1.87 1.847 2.805 4.104 2.805 6.768 0 2.683-.916 4.91-2.747 6.68-1.927 1.906-4.196 2.859-6.804 2.859-2.61 0-4.86-.943-6.748-2.83-1.889-1.886-2.833-4.122-2.833-6.71 0-2.586.954-4.842 2.862-6.767 1.831-1.867 4.07-2.8 6.719-2.8z" fill-rule="evenodd"/></g><path d="M48.093 32.747c.316 0 .605.029.865.084.26.055.482.146.669.274.185.126.329.295.431.504.102.21.154.47.154.78 0 .333-.076.61-.228.833-.152.223-.376.405-.674.547.41.118.715.323.917.617.202.294.303.649.303 1.063 0 .334-.065.623-.195.867s-.306.444-.525.598c-.22.155-.472.27-.753.344a3.381 3.381 0 0 1-.87.111h-3.216v-6.622h3.122zm-.185 2.679c.259 0 .473-.062.64-.186.167-.123.25-.323.25-.6a.768.768 0 0 0-.083-.38.625.625 0 0 0-.223-.232.945.945 0 0 0-.32-.115 2.16 2.16 0 0 0-.377-.032h-1.364v1.545h1.477zm.084 2.81c.143 0 .279-.014.409-.042a1.04 1.04 0 0 0 .344-.139.704.704 0 0 0 .237-.264.901.901 0 0 0 .088-.426c0-.34-.096-.583-.288-.728-.192-.145-.445-.218-.762-.218h-1.59v1.817h1.562zm2.795-5.489h1.634l1.55 2.616 1.542-2.616h1.623l-2.458 4.08v2.542h-1.46v-2.578l-2.43-4.044zM87.801 14.981c.005 5.5-4.451 9.962-9.953 9.967-5.5.003-9.963-4.453-9.967-9.952v-.015c-.004-5.5 4.453-9.962 9.954-9.967 5.5-.003 9.963 4.453 9.966 9.952v.015z" fill="#fff"/><path d="M77.826 3.386c3.252 0 6 1.12 8.244 3.362 2.245 2.242 3.368 4.987 3.368 8.233 0 3.246-1.104 5.962-3.31 8.146-2.342 2.3-5.11 3.449-8.302 3.449-3.153 0-5.873-1.14-8.156-3.42-2.284-2.28-3.425-5.005-3.425-8.175 0-3.17 1.141-5.914 3.425-8.233 2.225-2.241 4.944-3.362 8.156-3.362zm-8.972 8.48a9.289 9.289 0 0 0-.52 3.115c0 2.57.94 4.792 2.817 6.667 1.877 1.874 4.112 2.811 6.705 2.811 2.592 0 4.846-.946 6.762-2.84a8.928 8.928 0 0 0 1.585-2.028l-4.372-1.947c-.296 1.471-1.607 2.464-3.191 2.58v1.789h-1.331v-1.788c-1.302-.015-2.559-.547-3.52-1.388l1.597-1.61c.769.723 1.538 1.048 2.588 1.048.68 0 1.435-.266 1.435-1.153a.867.867 0 0 0-.313-.696l-1.106-.491-1.376-.614-1.837-.818-5.923-2.637zm9.002-6.393c-2.633 0-4.857.927-6.677 2.783-.495.5-.926 1.021-1.29 1.566l4.431 1.974c.401-1.23 1.57-1.976 2.989-2.059V7.95h1.331v1.788c.917.044 1.923.296 2.913 1.063l-1.523 1.567c-.562-.4-1.272-.68-1.982-.68-.576 0-1.39.177-1.39.901 0 .11.037.207.104.295l1.483.659 1.004.447c.641.287 1.254.558 1.86.829l5.943 2.645c.196-.778.295-1.606.295-2.482 0-2.647-.929-4.89-2.786-6.725-1.84-1.856-4.073-2.783-6.705-2.783z"/><path d="m72.517 32.747 2.767 4.443h.016v-4.443h1.366v6.622H75.21l-2.756-4.433h-.018v4.433h-1.367v-6.622h1.45zm9.678 1.765a1.492 1.492 0 0 0-.766-.612 1.504 1.504 0 0 0-.514-.089c-.328 0-.607.063-.836.19a1.56 1.56 0 0 0-.556.51 2.232 2.232 0 0 0-.311.727 3.613 3.613 0 0 0 0 1.655c.065.263.169.5.311.71.142.21.327.378.556.505.23.127.508.19.836.19.444 0 .793-.136 1.043-.409.25-.271.404-.63.46-1.076h1.41a3.37 3.37 0 0 1-.288 1.123 2.596 2.596 0 0 1-1.503 1.394c-.34.125-.715.187-1.122.187-.508 0-.964-.088-1.37-.265a2.94 2.94 0 0 1-1.025-.728 3.216 3.216 0 0 1-.642-1.09 4.005 4.005 0 0 1-.223-1.351c0-.495.075-.954.223-1.378.149-.424.362-.794.642-1.11a2.938 2.938 0 0 1 1.026-.742c.405-.18.861-.269 1.369-.269.365 0 .71.053 1.034.159.325.104.616.258.872.46.257.2.469.45.636.747.166.297.271.637.315 1.02h-1.41a1.182 1.182 0 0 0-.167-.458zM114.668 14.981c.005 5.845-4.73 10.587-10.576 10.592-5.846.003-10.589-4.731-10.593-10.577v-.015C93.495 9.136 98.23 4.394 104.076 4.39c5.846-.005 10.588 4.73 10.592 10.575v.016z" fill="#fff"/><path d="M103.918 3.386c-3.212 0-5.931 1.12-8.157 3.362-2.283 2.319-3.425 5.063-3.425 8.233 0 3.17 1.142 5.894 3.425 8.174 2.283 2.28 5.003 3.42 8.157 3.42 3.193 0 5.96-1.15 8.302-3.448 2.205-2.184 3.309-4.9 3.309-8.146 0-3.248-1.123-5.99-3.368-8.233-2.244-2.242-4.993-3.362-8.243-3.362zm.028 2.086c2.632 0 4.867.928 6.706 2.784 1.858 1.835 2.786 4.077 2.786 6.725 0 2.667-.909 4.88-2.727 6.638-1.917 1.894-4.172 2.84-6.765 2.84s-4.828-.937-6.705-2.812c-1.877-1.874-2.815-4.097-2.815-6.666 0-2.571.948-4.812 2.845-6.725 1.819-1.856 4.043-2.784 6.675-2.784z"/><path d="M108.313 12.233h-8.428v1.996h8.428v-1.996zm0 3.726h-8.428v1.996h8.428V15.96z"/><path d="m98.355 32.747 2.767 4.443h.016v-4.443h1.366v6.622h-1.457l-2.756-4.433h-.018v4.433h-1.367v-6.622h1.45zm8.285 0c.428 0 .825.068 1.194.204.369.136.687.34.957.613.269.271.48.612.63 1.02.153.408.229.887.229 1.437 0 .483-.062.927-.186 1.336-.124.407-.311.76-.561 1.056-.252.297-.564.531-.939.701-.374.17-.815.255-1.324.255h-2.86v-6.622h2.86zm-.102 5.396c.211 0 .415-.034.613-.102a1.34 1.34 0 0 0 .529-.339c.154-.157.278-.362.371-.615.093-.253.14-.563.14-.927 0-.334-.033-.634-.098-.903a1.798 1.798 0 0 0-.32-.69 1.421 1.421 0 0 0-.59-.44c-.244-.103-.546-.153-.904-.153h-1.039v4.169h1.298z" fill="#fff"/></svg>