<svg xmlns="http://www.w3.org/2000/svg" width="120" height="42"><path d="m3.41.446 113.353.202c1.583 0 2.998-.236 2.998 3.16l-.138 37.329H.548V3.669C.548 1.995.71.446 3.41.446z" fill="#aab2ab"/><path d="M117.753 0H2.248A2.25 2.25 0 0 0 0 2.247v39.246c0 .28.227.507.508.507h118.984c.28 0 .508-.227.508-.507V2.247A2.25 2.25 0 0 0 117.753 0zM2.248 1.015h115.505c.68 0 1.232.553 1.232 1.232V29.46H36.429c-3.026 5.47-8.857 9.185-15.547 9.185-6.693 0-12.521-3.71-15.545-9.185H1.015V2.247c0-.68.553-1.232 1.233-1.232z"/><path d="M34.523 19.545c.005 7.53-6.097 13.636-13.627 13.642-7.53.004-13.638-6.096-13.643-13.626v-.016C7.248 12.015 13.35 5.908 20.88 5.903 28.41 5.9 34.519 12 34.523 19.528v.017z" fill="#fff"/><path d="M31.973 8.44c3.023 3.024 4.535 6.726 4.535 11.105 0 4.38-1.486 8.042-4.458 10.988-3.154 3.102-6.88 4.653-11.182 4.653-4.249 0-7.911-1.538-10.986-4.615-3.076-3.075-4.613-6.75-4.613-11.026 0-4.275 1.537-7.977 4.613-11.105 2.997-3.024 6.66-4.536 10.986-4.536 4.38 0 8.08 1.512 11.104 4.536zm-20.056 2.034c-2.556 2.582-3.834 5.606-3.834 9.075 0 3.468 1.266 6.466 3.795 8.996 2.53 2.529 5.542 3.794 9.037 3.794 3.495 0 6.532-1.278 9.115-3.833 2.451-2.373 3.677-5.358 3.677-8.957 0-3.572-1.246-6.604-3.738-9.095-2.49-2.49-5.508-3.735-9.054-3.735s-6.547 1.252-8.998 3.755zm6.727 7.549c-.39-.852-.974-1.277-1.755-1.277-1.378 0-2.067.928-2.067 2.783 0 1.856.69 2.783 2.067 2.783.91 0 1.56-.452 1.95-1.357l1.912 1.017c-.911 1.618-2.278 2.428-4.1 2.428-1.405 0-2.53-.43-3.376-1.292-.846-.862-1.27-2.05-1.27-3.563 0-1.488.437-2.67 1.309-3.544.872-.875 1.958-1.311 3.26-1.311 1.926 0 3.304.758 4.139 2.274l-2.07 1.059zm8.99 0c-.39-.852-.964-1.277-1.72-1.277-1.405 0-2.11.928-2.11 2.783 0 1.856.705 2.783 2.11 2.783.913 0 1.552-.452 1.916-1.357l1.953 1.017c-.91 1.618-2.274 2.428-4.092 2.428-1.404 0-2.527-.43-3.372-1.292-.843-.862-1.266-2.05-1.266-3.563 0-1.488.429-2.67 1.286-3.544.857-.875 1.948-1.311 3.274-1.311 1.922 0 3.3.758 4.13 2.274l-2.109 1.059z"/><g transform="matrix(.99378 0 0 .9937 -177.694 -148.877)"><circle cx="242.562" cy="165.136" r="10.806" fill="#fff"/><path d="M245.69 162.01a.754.754 0 0 0-.754-.755h-4.772a.754.754 0 0 0-.754.754v4.773h1.33v5.652h3.618v-5.652h1.332v-4.773z"/><circle cx="242.55" cy="158.995" r="1.632"/><path clip-rule="evenodd" d="M242.535 153.23c-3.232 0-5.969 1.127-8.208 3.383-2.298 2.334-3.446 5.096-3.446 8.285s1.148 5.932 3.446 8.227c2.298 2.294 5.034 3.441 8.208 3.441 3.213 0 5.998-1.156 8.353-3.47 2.22-2.198 3.33-4.93 3.33-8.198 0-3.268-1.129-6.029-3.387-8.285-2.26-2.256-5.025-3.384-8.296-3.384zm.029 2.1c2.648 0 4.897.933 6.747 2.8 1.87 1.848 2.805 4.103 2.805 6.768 0 2.684-.915 4.91-2.746 6.68-1.928 1.906-4.197 2.859-6.806 2.859-2.61 0-4.858-.943-6.747-2.83-1.89-1.886-2.833-4.123-2.833-6.709 0-2.587.954-4.843 2.862-6.768 1.83-1.867 4.07-2.8 6.718-2.8z" fill-rule="evenodd"/></g><path d="M59.997 32.747c.315 0 .603.028.863.084.26.055.484.146.67.273.185.126.33.295.432.505.102.21.153.47.153.78 0 .333-.076.61-.228.833-.151.223-.376.404-.673.547.41.117.715.323.917.617.202.294.302.648.302 1.063 0 .334-.065.623-.195.867s-.305.444-.525.598c-.22.155-.471.27-.753.344a3.381 3.381 0 0 1-.87.111h-3.215v-6.622h3.122zm-.186 2.679c.26 0 .473-.063.64-.186.168-.123.251-.323.251-.6a.768.768 0 0 0-.083-.38.625.625 0 0 0-.224-.232.938.938 0 0 0-.32-.115 2.157 2.157 0 0 0-.376-.032h-1.365v1.545h1.477zm.085 2.81c.142 0 .278-.014.409-.042.13-.028.245-.075.344-.139a.704.704 0 0 0 .237-.265.901.901 0 0 0 .088-.426c0-.34-.096-.582-.288-.727-.193-.145-.446-.218-.762-.218h-1.59v1.817h1.562zm2.795-5.489h1.633l1.55 2.615 1.542-2.615h1.624l-2.459 4.08v2.542h-1.46v-2.578l-2.43-4.044zM102.403 14.98c.004 5.846-4.731 10.588-10.577 10.592-5.846.005-10.588-4.73-10.593-10.576v-.015C81.229 9.135 85.965 4.394 91.81 4.389c5.846-.004 10.59 4.731 10.593 10.576v.016z" fill="#fff"/><path d="M91.742 3.386c-3.212 0-5.93 1.12-8.156 3.362-2.283 2.32-3.425 5.064-3.425 8.233 0 3.169 1.142 5.894 3.425 8.174 2.283 2.28 5.002 3.42 8.156 3.42 3.193 0 5.96-1.15 8.303-3.449 2.205-2.183 3.308-4.899 3.308-8.145 0-3.246-1.123-5.991-3.367-8.233-2.245-2.241-4.993-3.362-8.244-3.362zm.03 2.087c2.631 0 4.866.927 6.705 2.783 1.857 1.836 2.786 4.077 2.786 6.725 0 2.666-.909 4.88-2.728 6.638-1.916 1.894-4.17 2.84-6.764 2.84-2.593 0-4.828-.937-6.705-2.81-1.877-1.876-2.815-4.098-2.815-6.668 0-2.57.948-4.812 2.844-6.725 1.82-1.856 4.044-2.783 6.676-2.783z"/><path d="M86.603 13.344c.462-2.917 2.516-4.477 5.09-4.477 3.702 0 5.958 2.686 5.958 6.268 0 3.495-2.4 6.21-6.016 6.21-2.488 0-4.714-1.53-5.12-4.534h2.921c.088 1.56 1.1 2.108 2.546 2.108 1.648 0 2.72-1.53 2.72-3.87 0-2.455-.927-3.755-2.663-3.755-1.272 0-2.37.462-2.603 2.05l.85-.004-2.3 2.299-2.299-2.3.916.005z"/><path d="M86.264 37.732c.08.155.186.28.32.376.132.096.287.167.466.213.18.047.365.07.556.07.13 0 .268-.01.416-.032.148-.022.287-.064.417-.126a.9.9 0 0 0 .323-.255.635.635 0 0 0 .13-.413.581.581 0 0 0-.172-.435 1.355 1.355 0 0 0-.45-.279 4.54 4.54 0 0 0-.628-.194 16.855 16.855 0 0 1-.713-.186 6.255 6.255 0 0 1-.723-.227 2.486 2.486 0 0 1-.63-.348 1.637 1.637 0 0 1-.45-.533 1.63 1.63 0 0 1-.17-.775c0-.34.072-.635.217-.886.146-.25.336-.459.57-.626.235-.167.5-.29.797-.371.296-.08.593-.12.89-.12.346 0 .678.038.996.116.317.077.6.203.847.376.248.173.444.394.59.664.144.269.217.595.217.979h-1.413a1.192 1.192 0 0 0-.124-.492.826.826 0 0 0-.282-.306 1.197 1.197 0 0 0-.402-.158 2.455 2.455 0 0 0-.494-.046 1.72 1.72 0 0 0-.35.037.943.943 0 0 0-.318.13.796.796 0 0 0-.236.232.63.63 0 0 0-.092.352c0 .13.024.236.073.316.05.08.148.155.293.222a3.7 3.7 0 0 0 .601.205c.256.068.591.154 1.006.26.123.024.294.07.513.134.22.065.437.169.653.31.217.143.403.334.561.571.157.239.236.543.236.914 0 .304-.06.585-.177.845-.117.26-.292.484-.524.672-.232.19-.519.336-.861.441a4.078 4.078 0 0 1-1.192.158c-.365 0-.72-.045-1.063-.135a2.675 2.675 0 0 1-.91-.423 2.107 2.107 0 0 1-.625-.734c-.155-.298-.228-.65-.222-1.058h1.413c0 .222.04.411.12.565zm8.205-4.985 2.478 6.622h-1.513l-.5-1.475h-2.478l-.52 1.475h-1.465l2.505-6.622h1.493zm.084 4.06-.835-2.427H93.7l-.864 2.428h1.717z" fill="#fff"/></svg>