<svg xmlns="http://www.w3.org/2000/svg" width="120" height="42"><path d="m3.14.653 113.355.202c1.584 0 2.998-.234 2.998 3.16l-.14 37.335H.28V3.878C.28 2.203.44.653 3.14.653z" fill="#fff"/><path d="M117.753 0H2.246A2.249 2.249 0 0 0 0 2.246v39.249c0 .28.228.505.507.505h118.986c.28 0 .507-.225.507-.505V2.246A2.248 2.248 0 0 0 117.753 0zM2.246 1.016h115.507c.679 0 1.23.55 1.23 1.23v38.69H1.016V2.246c0-.678.552-1.23 1.23-1.23z"/><path d="M20.073 11.85c-5.266 0-6.592 4.97-6.592 9.184 0 4.215 1.324 9.184 6.592 9.184s6.592-4.972 6.592-9.184c0-4.215-1.324-9.185-6.592-9.185zm0 3.461c.214 0 .41.033.593.081.38.325.565.777.2 1.407l-3.507 6.449a17.366 17.254 0 0 1-.124-2.214c0-1.856.128-5.723 2.838-5.723zm2.626 2.971c.187.99.212 2.023.212 2.75 0 1.857-.128 5.722-2.837 5.722-.212 0-.41-.023-.593-.066a.732.728 0 0 0-.1-.034c-.055-.016-.115-.033-.167-.056-.603-.254-.983-.72-.435-1.543z"/><path d="M20.039 5.078c-4.425 0-8.155 1.54-11.196 4.636a16.29 16.185 0 0 0-3.53 5.252 15.965 15.862 0 0 0-1.195 6.067c0 2.127.397 4.148 1.195 6.068a16.265 16.16 0 0 0 3.474 5.183 16.578 16.47 0 0 0 5.185 3.507 15.75 15.75 0 0 0 6.067 1.197c2.11 0 4.159-.411 6.135-1.228a16.445 16.34 0 0 0 5.295-3.53 14.543 14.45 0 0 0 3.395-5.038c.779-1.917 1.164-3.973 1.164-6.157 0-2.165-.384-4.216-1.162-6.134a15.398 15.299 0 0 0-3.419-5.15c-3.134-3.12-6.944-4.673-11.408-4.673zm.067 2.87c3.608 0 6.687 1.28 9.25 3.843a12.862 12.779 0 0 1 2.827 4.226 13.286 13.2 0 0 1 .973 5.017c0 3.667-1.255 6.71-3.742 9.14a13.676 13.588 0 0 1-4.358 2.883 12.69 12.608 0 0 1-4.95.991 12.869 12.786 0 0 1-4.961-.97 13.396 13.31 0 0 1-4.245-2.852 13.684 13.596 0 0 1-2.905-4.247 12.907 12.824 0 0 1-1.006-4.95 12.832 12.749 0 0 1 1.006-4.96 13.973 13.883 0 0 1 2.905-4.302c2.487-2.542 5.56-3.818 9.206-3.818z"/><path d="M32.415 5.502c4.75 3.512 7.846 9.137 7.848 15.5-.002 5.787-2.564 10.967-6.603 14.503h85.709V5.502z"/><path d="M49.417 10.241c.534 0 .993.08 1.366.235.377.157.682.363.92.617.235.256.407.55.516.877a3.282 3.282 0 0 1 0 2.035 2.36 2.36 0 0 1-.517.88 2.556 2.556 0 0 1-.919.618c-.373.155-.832.235-1.366.235h-1.98v3.071h-1.885v-8.568zm-.517 4.032c.215 0 .425-.016.623-.047.2-.031.377-.094.53-.186a1.02 1.02 0 0 0 .366-.39c.093-.168.138-.389.138-.66 0-.27-.045-.49-.138-.66a.984.984 0 0 0-.367-.388 1.45 1.45 0 0 0-.529-.187 3.87 3.87 0 0 0-.623-.05h-1.463v2.57zm11.442 3.882c-.649.565-1.545.847-2.689.847-1.16 0-2.058-.28-2.694-.84-.636-.559-.954-1.426-.954-2.592v-5.33h1.884v5.33c0 .232.021.458.061.684.04.224.124.422.252.595.128.17.307.31.535.419.228.11.534.162.918.162.672 0 1.135-.149 1.392-.45.256-.3.384-.769.384-1.408V10.24h1.885v5.33c-.001 1.159-.325 2.019-.974 2.584zm7.253-7.914c.41 0 .78.037 1.116.11.333.073.623.19.863.354.241.164.426.382.56.653.13.272.198.61.198 1.009 0 .43-.098.791-.294 1.078-.2.288-.487.526-.872.709.528.152.922.42 1.18.798.258.38.39.84.39 1.375 0 .432-.085.806-.255 1.122a2.214 2.214 0 0 1-.676.774c-.285.2-.607.348-.973.443a4.444 4.444 0 0 1-1.12.142h-4.156V10.24zm-.238 3.469c.335 0 .61-.08.828-.242.215-.16.321-.418.321-.78 0-.2-.034-.364-.106-.492a.812.812 0 0 0-.288-.3 1.158 1.158 0 0 0-.416-.147 2.573 2.573 0 0 0-.484-.043h-1.764v2.005zm.109 3.637c.184 0 .36-.019.528-.054a1.33 1.33 0 0 0 .444-.18.96.96 0 0 0 .308-.344c.077-.141.114-.327.114-.55 0-.44-.126-.755-.37-.942-.248-.187-.578-.282-.986-.282h-2.052v2.355h2.017v-.003zm7.047-7.106v6.986h4.176v1.582h-6.062v-8.568zm7.643 0v8.568h-1.884v-8.568zm7.777 2.287a1.907 1.907 0 0 0-.421-.473 1.895 1.895 0 0 0-.57-.32 1.919 1.919 0 0 0-.666-.113c-.425 0-.782.084-1.081.248a1.975 1.975 0 0 0-.716.658 2.97 2.97 0 0 0-.404.942 4.67 4.67 0 0 0-.126 1.092c0 .362.042.71.126 1.051.085.34.219.646.404.919.183.272.426.489.716.654.299.163.656.245 1.081.245.579 0 1.026-.176 1.35-.527.322-.352.523-.815.596-1.392h1.823a4.37 4.37 0 0 1-.37 1.452c-.198.43-.465.8-.793 1.104-.324.305-.71.537-1.152.695-.44.161-.925.241-1.452.241-.653 0-1.247-.113-1.769-.341a3.768 3.768 0 0 1-1.327-.942c-.361-.4-.638-.87-.827-1.409a5.142 5.142 0 0 1-.288-1.746c0-.641.094-1.234.288-1.783a4.327 4.327 0 0 1 .827-1.435c.36-.409.802-.726 1.327-.96.524-.232 1.111-.349 1.769-.349.474 0 .922.07 1.337.204.42.138.795.336 1.128.596.332.258.604.582.824.964.215.384.353.824.41 1.321H90.15a1.513 1.513 0 0 0-.217-.596zm-40.685 9.716a4.41 4.41 0 0 1 1.542.26c.477.176.888.439 1.235.792.348.353.62.794.817 1.321.197.53.295 1.15.295 1.858a5.93 5.93 0 0 1-.24 1.73c-.161.53-.402.985-.726 1.371-.324.38-.728.683-1.213.905-.483.217-1.053.328-1.71.328h-3.696v-8.565zm-.131 6.983c.271 0 .536-.042.792-.133.256-.084.483-.235.685-.438.199-.204.36-.47.48-.8.12-.326.18-.725.18-1.2 0-.429-.043-.82-.127-1.169a2.294 2.294 0 0 0-.415-.893 1.836 1.836 0 0 0-.762-.57c-.315-.133-.705-.198-1.17-.198h-1.342v5.4zm5.838-4.448a4.373 4.373 0 0 1 .826-1.435 3.77 3.77 0 0 1 1.327-.96c.525-.232 1.112-.349 1.77-.349.664 0 1.256.117 1.777.348.52.232.96.55 1.32.96.36.411.636.884.826 1.436a5.29 5.29 0 0 1 .29 1.783c0 .623-.095 1.207-.29 1.745a4.286 4.286 0 0 1-.825 1.409c-.363.4-.802.711-1.321.941-.521.225-1.112.342-1.777.342a4.45 4.45 0 0 1-1.77-.342 3.845 3.845 0 0 1-1.327-.941 4.224 4.224 0 0 1-.826-1.41 5.19 5.19 0 0 1-.288-1.744c0-.639.095-1.235.288-1.783zm1.72 2.831c.085.342.219.65.403.922.184.27.425.486.718.653.298.164.656.248 1.08.248.426 0 .786-.084 1.08-.248.298-.164.538-.381.722-.653.182-.271.315-.58.402-.922a4.665 4.665 0 0 0 0-2.14 2.913 2.913 0 0 0-.402-.943 2.07 2.07 0 0 0-.722-.657c-.294-.164-.654-.25-1.08-.25-.424 0-.782.084-1.08.25a2.05 2.05 0 0 0-.718.657 2.921 2.921 0 0 0-.403.943 4.64 4.64 0 0 0-.126 1.092c.001.36.043.71.126 1.048zm10.95-5.366 2.006 5.89h.028l1.9-5.89h2.647v8.565h-1.764v-6.07h-.027l-2.1 6.07h-1.451l-2.1-6.011h-.026v6.011h-1.763v-8.565zm13.19 0 3.204 8.565h-1.955l-.65-1.908H78.21l-.671 1.908H75.64l3.241-8.565zm.109 5.255-1.082-3.146h-.024L78.704 27.5zm6.413-5.255v8.565h-1.885v-8.565zm4.168 0 3.577 5.747h.025v-5.747h1.764v8.565h-1.887l-3.56-5.736h-.028v5.736h-1.764v-8.565z" fill="#fff"/></svg>